<svg data-bbox="20 20 160 160.001" viewBox="0 0 200 200" height="200" width="200" xmlns="http://www.w3.org/2000/svg" data-type="shape">
    <g>
        <path d="M178.568 32.188l-8.266-8.254a10.265 10.265 0 0 0-11.756-1.958L74.72 55.245 43.434 24.001c-5.342-5.335-14.085-5.335-19.427 0s-5.342 14.065 0 19.401l31.192 31.149-33.439 84.024a10.23 10.23 0 0 0 1.96 11.74l8.266 8.255c2.143 2.14 5.7 1.838 7.451-.633l49.414-69.779 27.57 27.532c-.523 13.872-.898 28.087-.264 28.72l1.522 1.519a4.146 4.146 0 0 0 6.31-.536l17.143-24.208 24.242-17.12a4.132 4.132 0 0 0 .537-6.301l-1.522-1.52c-.627-.627-14.582-.267-28.337.248l-27.735-27.697 69.618-49.165a4.882 4.882 0 0 0 .633-7.442z"></path>
    </g>
</svg>
