<svg id="visual" viewBox="0 0 900 600" width="900" height="600" xmlns="http://www.w3.org/2000/svg" xmlns:xlink="http://www.w3.org/1999/xlink" version="1.1"><g transform="translate(886.2707005487971 108.29702311767736)"><path d="M466.5 -566.7C580.3 -559.4 631.6 -390.6 661.7 -230.8C691.7 -71.1 700.6 79.7 622.3 165.5C543.9 251.3 378.3 272.1 260.1 271.2C141.9 270.2 70.9 247.6 -15.7 269.2C-102.3 290.8 -204.5 356.5 -299.7 349.9C-394.8 343.3 -482.7 264.4 -554.7 154C-626.7 43.6 -682.9 -98.3 -642.4 -204.4C-602 -310.5 -465 -381 -341.8 -385.3C-218.7 -389.6 -109.3 -327.8 33.5 -373.9C176.3 -420 352.7 -574.1 466.5 -566.7" fill="#f7b783"></path></g></svg>
