<svg data-bbox="0 -0.018 1346.039 891.522" viewBox="0 0 1345.99 891.5" xmlns="http://www.w3.org/2000/svg" data-type="color">
    <g>
        <g>
            <path d="m138.75 655.24 3.79-1.17c-31.3-22.45-64.4-44.24-73-81.59C52.41 465.79 286 337.24 378.53 302.25c72.57-36.89 181.19 14.27 219.15-56.32 6.19-10.93 19-13.55 31.24-16.39 2.67 4.59-11.84 3.79-14.67 6.21-28.85 17 107.3 45.51 105.52 17.25 5.76-.75 8 12.88 10.48 16.93 26.75 58.94 106.33 71.84 165.55 71.36 24.17 13.43 45.61 33.86 68.7 49.79 9.91 7.44 19.9 14.79 29.6 22.42 1.14.9 2.87 1.54 2.29 3.34-42.31 5.12-84.68 9.88-126.88 15.59-13.12 1.78-13 14.13-17.64 22-71.41 120-206.8 210.4-346.85 237.83-27.93 7.06-58.52 7-85.74 14.45-11.93-5-24-.35-35.71.38-80.57 7.59-153.11-11.49-225.13-39.9 2.69-4-5.89-5.46-8-7.93-2.65-1.66-5.39-3-8.83-3a3.12 3.12 0 0 1-2.86-1.02Z" fill="#025a99" data-color="1"></path>
            <path d="M719.84 252.69c2.31 8.88-5.93 10.79-12.26 11.68-33.41 4.71-64.53-1.64-93.39-16.56-3.41-1.76-7.83-4.79-5.89-8.74 3.67-7.57 14.51-4.63 20.62-9.55 0-.83.07-1.66.11-2.49 6.84-38.58 18.1-48.7-27.29-61.63-20-6.75-38.89-18.39-59.5-21.32C356.19 112.8 181.09 50.25 0 3 52.53-8.66 103.65 16.45 152.87 27.68 286.21 61.94 419 97.7 552.5 131.6c34 7.14 71.39 19.73 106.79 12.85 9.18-4.53 17.43-6.2 12.31 6.39-1.37 4.68 2.21 2.69 4.65 3.3 14.36 3.62 25.21-9.29 39.35-6 5 1.16 8.71 3.22 7.18 8.65 36.86 16 82.59 17.4 124.53 19.18 115.8.35 231.59 3.06 347.39 5.1 21.37 1 45.24-.65 63.4 11.88-158-.56-316.68-6.39-474.91-9.39-6.27.48-34.8-.5-35.34 4.58-3.85 17.2 8.36 26 22.29 35.75C826.24 263 881.43 303.14 937 342.92c123.25 86.28 245.3 175.34 367.49 263.35-48.77 8.34-82.27-17.88-114.89-43.52-63.72-49.28-128.58-97.61-193.22-145.92h.06l-100.13-75.19c-54.66-36.39-106.11-79.74-159.77-118.3-5.13-5.94-14.19 19.38-17.92 22.87-1.87 2.5 2.49 4.01 1.22 6.48Z" fill="#19171a" data-color="2"></path>
            <path d="M1035.44 413.36q-49.29-35.22-98.57-70.45c69 2.95 140.68.41 208 3.62 25.53-1.31 53.14 6.48 73.74-14.8 33.07-34.15 67.55-67.19 91-107.65 5.89-10.18 20.32-16.19 24-28.72.79-2.68 4.82-4 8.22-2.23 5.86 3.06 3.3 8.18 3.88 12.65 3.57 27.4-22.9 45.11-29.62 69.32-3.91 14.11 12.26 19.52 14 30.54 7.16 38.55-12.21 69.54-33.42 101.27-2 1.17-4.17-.31-6.11-.81-15.63-5.79-12.59-3.66-14.44-16.71-.23-1.61.23-4.27-2.47-4.07-3.26.23-1.6 3.3-1.73 4.94 2.15 7.7-2.4 8.83-8.67 5.78-6.36-2.28-8.84-3.71-5.15-9.8 3.14-4.22-2.6-6.24-1.65-10.41.46-3 .54-7.23-3.54-7.38-1.88-.27-2.21 1-2.63 2.1-3 8.22-13.1.46-7.66-5.7 2.32-3.22 2.92-11.34 8.51-8.88 4.19 2.89 15.66 6.15 12.66-2.87-3.36-6-14.83-8.78-3.94-15.33 2.9.5 6.07.22 8.49 2.16.9 3.64 6.06 5.63 9.55 3.49 4.44-3.15 10.86 1.38 14.11-3.9 5.92-5.16 8.18-16.94 18-13.77 5.08 1.12 8 4.16 10 8 .32 1.38 1.44 1.58 1.43.07 3.22-12.95.84-36.71-17.88-32.09-33.79 12.36-56 46.43-66.37 78.73-1.36 4.07-2.47 4.58-7 3.09-5.55-.63-8.3-6.34-13.55-6.39-6.28 1.34-30.65-.12-32.07 5.93.09 2.75 3.73 2.18 5.92 2.43 14.17 1.82 25.94 9 39.15 13.33 7.72 2.74 2.9 12.52 6.63 18.44 3.21 8.85 9.72 11.3 19.43 7.31 7.57-3.07 17.07-13 23.62-2.95-57.88 32.42-28.51 48.37-51.34 56.6-16.66 4.7-5.45 15.89-7.73 23.89 4 2.91 9.68-4.24 12.9 2-4.51 8.1-19.76 6.39-21.19-3.67-22.17-119.34 45.74-117.17-176.51-87.11Z" fill="#025a99" data-color="1"></path>
            <path d="m660 634.81 11.28-7c41.34 45.88 31.15 106.43 33 162.38-5.28 39.21 26.72 21.17 61.87 17.07 4.75-.61 10.77-1.58 12.1 4 1.38 5.75-2.8 9.68-9.37 10.1-67.78 14.81-134.52 25.06-202.07 38.32-46.6 8-93.53 15.49-139 27.18-32.86 8.46-60.06 6.14-85.32-13.45-2.51-1.95-8.23-3.62-5.77-6.87 2.75-3.62 9.82-7.07 13.77-3.82 32.9 27.12 67.12 7.85 101 3 12.51-1.81 8.54-10.06 10.58-17 12.07-51.26-10-102.84-42.86-142v.07c2.93-6.14 9.18-2.78 13.95-3.65 8.1 4.75 12.44 14.92 17.88 22.25 21.65 33.35 31.86 70.75 29.77 109.8 0 3.51-.15 6.89 3 9.87 4.22 3.46-1.4 12.1 6.46 11.7 59.84-8.4 119.44-19.68 178.81-31 19.48-5 7.46-19.44 15.59-24.47 1.91-1.29 1.33-3.29 1.33-5.03-1.77-48.56 7.83-99.45-16.18-144.33-1.89-5.66-9.36-11.86-9.82-17.12Z" fill="#19171a" data-color="2"></path>
            <path d="M1245.85 373.9c4.49-.6 3.84-11.9 9.93-5.31 3.67 4 6.12 11.9 3.13 18.7-.75 1.7-1.43 5-.74 5.34 3.85 1.81 8.14 2.92 12.27 4.28l.06-6.72c0-2.81-1.66-6.78 4-6.6 4.18.13 3.1 3.87 2.83 5.77-2.16 16.79 18.1 15.07 28.68 20.91 6.08 3.23 19.62 4.2 17 9.58-7.6 12.86-31.18 8-43.6 1.86-6.32-5.41-11.39-2.75-17.56 1-14.88 9-26.47 6.29-27.6-10.17-1.36-19.91-22.57-16-33.88-23.78-5.15-3.54-17.8 0-16.81-5.51 1.42-8 13.5-5.16 21-6.06 7-.84 14.72-3.36 21.38 3.31 4.17 4.18 9.08 4.62 11.53-3.62 4.33-23.13 48.7-87.84 77.72-74.78 13.15 8 8.74 24.09 6.32 36.15-3.6-7.63-14.56-19.4-21.12-7-5 15.35-39.23 17.7-32.49 8.21-1.29-4.16 2.83-7.43 3-11.45-3.95 3.07-5.26 8-10.33 10-6.6 4.72-4 8.1 1.82 11.57 7.22 4.1 2.38 11.77-4.3 10.44-17.11-8.74-12.24 6-16.25 11.16.49 1.54-.08 3-.38 4.46 1.62-.36 2.54-2.44 4.39-1.74Z" fill="#19171a" data-color="2"></path>
            <path d="M138.75 655.24c10.31-1.18 15.66 6.41 23.33 9.89-21.43 6.66-46.78 1.48-68.34 7.94-33.51 7.3-64.09-2.05-82.38-27 7.39.08 18.56-2.5 21.56.68 25.48 26.74 73 8.64 105.83 8.49Z" fill="#19171b" data-color="3"></path>
            <path d="m1144.9 346.54-55.15-1.43c-10.68-3.92-21.71-7.64-32.37-11.78-2.06-.79-3.46-2.86-5.17-4.34 27.27-17.49 65.58 10.31 92.69 17.55Z" fill="#19171a" data-color="2"></path>
            <path d="M325.77 629.62c-92.44 1.88-167-32.29-231-86.55-19.32-16.38-14-30.14 12.1-57.63C210.35 392.53 386 227.87 527.71 338.28 612 401.74 492.89 542 444.25 602.59c-30.44 30.49-78.67 23.02-118.48 27.03Z" fill="#19171a" data-color="2"></path>
            <path d="M671.88 445.25c-7.61 122.16-66.11 143.48-179 162.68-5.47 1.06-11.92 2.79-16-1.51-4.53-4.71-1.09-10.08 2.06-14.32 42.16-59.59 84-120.8 95.57-192.76 4.22-22.89 16.94-30.47 44.68-25.72 35.06 6.03 52.69 28.25 52.69 71.63Z" fill="#19171a" data-color="2"></path>
            <path d="M297 703.15c-26.33-2.77-171.4-29-147.33-74.2 8.05-11.86 19.91-4 30-.2 55.33 22.77 113.83 33.87 174.57 31.79 7.67-.28 17.27-.31 20.86 6.66 4.28 8.34-5 12.88-10.92 17.35-17.53 13.22-38.72 17.95-67.18 18.6Z" fill="#19171a" data-color="2"></path>
            <path d="M71 549.9c-.29 2.21.14-1.08.57-4.37 1 2.92.94 6.56 3 8.64 17.73 17.83 21.55 39.9 25.22 62.06C82.08 599.31 69.78 579.28 71 549.9Z" fill="#19171b" data-color="3"></path>
            <path d="M132.36 614.68c-.31 4.94.36 10.94-5.81 10-11.24-1.8-15.12-10.09-15.93-19.1-.4-4.43 1.11-10.07 7.56-9.13 12.22 1.72 13.46 10.55 14.18 18.23Z" fill="#19171a" data-color="2"></path>
            <path d="M1263.81 373.08a28.39 28.39 0 0 1 22.1-26.43c4.07 8.45 11.87 7.74 20.18 6.47 1-.15 2.46 2.3 3.72 3.54-1.37.79-2.77 2.3-4.1 2.26-15.75-.46-16.1 13.7-25.1 19.56-6.83 6.59-17.16 5.78-16.8-5.4Z" fill="#19171a" data-color="2"></path>
            <path d="M1297.61 319.44c-1.53 8.86-11.22 13.21-16.62 20.07-.26-.57-.94-1.31-.73-1.68 4.94-8.69-2.31-22.4 13.28-26.33 4.63-1.17 2.72 4.66 4.07 7.94Z" fill="#fafbfb" data-color="4"></path>
            <path d="m1250.05 385.61-1.67 3.4-8.63-3.56 8.72-3.81c.53 1.25 1 2.51 1.58 3.97Z" fill="#d1dfe7" data-color="5"></path>
            <path d="M1239.54 410c-8.56-9.4-1.08-5.65 5-2.62Z" fill="#e4edf2" data-color="6"></path>
            <path d="M335.21 615.42c-11.6 1.22-83.58-1.11-78.32-9.49 57.73-65.71 118.27-129 199.11-175 5.45-3.1 13.14-9.11 18.19-4.44 4.71 4.36-2.08 11.23-6 15.7-42 48.37-80.84 98.47-115.59 151-5.37 8.2-7 20.09-17.39 22.23Z" fill="#fefefe" data-color="7"></path>
        </g>
    </g>
</svg>
